<!-- icon666.com - MILLIONS vector ICONS FREE --><svg id="Layer_2" viewBox="0 0 64 64" xmlns="http://www.w3.org/2000/svg" xmlns:xlink="http://www.w3.org/1999/xlink" data-name="Layer 2"><linearGradient id="Orange_Yellow" gradientUnits="userSpaceOnUse" x1="5.715" x2="52.703" y1="53.398" y2="15.146"><stop offset="0" stop-color="#fff33b"/><stop offset=".04" stop-color="#fee72e"/><stop offset=".117" stop-color="#fed51b"/><stop offset=".196" stop-color="#fdca10"/><stop offset=".281" stop-color="#fdc70c"/><stop offset=".669" stop-color="#f3903f"/><stop offset=".888" stop-color="#ed683c"/><stop offset="1" stop-color="#e93e3a"/></linearGradient><g fill="url(#Orange_Yellow)"><path d="m32 2a30 30 0 1 0 30 30 30.034 30.034 0 0 0 -30-30zm0 56a26 26 0 1 1 26-26 26.029 26.029 0 0 1 -26 26z"/><path d="m43.313 17.858-11.313 11.314-11.313-11.314-2.829 2.829 11.314 11.313-11.314 11.313 2.829 2.829 11.313-11.314 11.313 11.314 2.829-2.829-11.314-11.313 11.314-11.313z"/></g></svg>